<?xml version="1.0" encoding="UTF-8"?>
<svg width="183px" height="60px" viewBox="0 0 183 60" version="1.1" xmlns="http://www.w3.org/2000/svg" xmlns:xlink="http://www.w3.org/1999/xlink">
    <!-- Generator: Sketch 50.2 (55047) - http://www.bohemiancoding.com/sketch -->
    <title>logo</title>
    <desc>Created with Sketch.</desc>
    <defs></defs>
    <g id="logo" stroke="none" stroke-width="1" fill="none" fill-rule="evenodd">
        <g id="Group-3" transform="translate(3.000000, 0.000000)" fill="#ffffff">
            <path d="M49.0288496,19.3540702 L45.342779,12.8039826 L52.4840796,12.8060982 C52.6748656,12.8060982 52.8972736,12.9330379 53.0016262,13.1044065 C53.1154654,13.2916425 53.695202,14.2479215 54.3919399,15.3967256 C55.2257066,16.7719055 56.2228535,18.4157743 56.7931034,19.3540702 L49.0288496,19.3540702 Z M35.8203421,59.0237786 C35.6474752,59.333723 35.4229591,59.333723 35.3502285,59.333723 L32.4325724,59.333723 C30.8883649,59.3326651 29.1069926,59.3316073 28.0466016,59.3316073 L39.3936276,38.9546149 C39.5823055,38.6161091 39.5780892,38.2035551 39.3820329,37.8692806 C39.1859765,37.5350061 38.829702,37.3297869 38.4439137,37.3297869 L38.4428596,37.3297869 L19.1039014,37.3551749 L15.2586668,30.6950729 L43.4264861,30.6950729 C43.4285942,30.6950729 43.4307023,30.6940151 43.4338645,30.6940151 C43.4370267,30.6940151 43.4391349,30.6950729 43.441243,30.6950729 C43.457054,30.6950729 43.4718109,30.6897838 43.4876219,30.6887259 C43.5508659,30.6844946 43.6141099,30.6781476 43.6741917,30.663338 C43.7205706,30.6527597 43.7658955,30.6379501 43.8112203,30.6210248 C43.8354639,30.6115043 43.8586533,30.6019838 43.8818428,30.5914055 C44.0926561,30.4972586 44.2792259,30.3428153 44.3983354,30.1238443 L49.0414983,21.5374327 L56.70667,21.5374327 L35.8203421,59.0237786 Z M26.1566604,58.2494465 C25.9100088,57.8432395 25.5895726,57.315382 25.2406766,56.74098 C24.0675006,54.804092 22.5644017,52.3245369 22.394697,52.0526744 C22.3377774,51.9606431 22.3114258,51.736383 22.4305353,51.5227012 C22.7024844,51.0339834 27.8378965,41.7811385 29.0890734,39.5258434 L36.5877026,39.516323 L26.1566604,58.2494465 Z M13.3687255,45.4972976 L9.64154635,38.8731619 L13.3982394,31.8290674 L17.1665271,38.3548249 C15.9954593,40.5604019 14.1677079,44.0004672 13.3687255,45.4972976 Z M8.36612587,46.5286826 C6.46880616,46.5286826 4.58202711,46.5276247 4.30480762,46.5276247 L4.30375355,46.5276247 C4.11823785,46.5276247 3.89372168,46.3975116 3.79147723,46.2303743 L2.57824668,44.2300165 C1.71391214,42.8040607 0.611358575,40.9856498 0,39.9796528 L7.7642539,39.9796528 L11.4492704,46.5297404 C10.6450177,46.5297404 9.50662584,46.5286826 8.36612587,46.5286826 Z M20.9727613,0.311002221 C21.1456282,0 21.3690903,0 21.4418209,0 L28.7770697,0.00105783068 L17.3994758,20.3780503 C17.3899892,20.3949756 17.3847189,20.4129587 17.3762864,20.4309418 C17.3594213,20.4647924 17.3446644,20.4997008 17.3309615,20.535667 C17.3193668,20.5705754 17.3088261,20.604426 17.2993395,20.6393344 C17.290907,20.6721272 17.2835285,20.7049199 17.2782582,20.7377127 C17.2719338,20.7789681 17.2677175,20.8191657 17.2666635,20.8593632 C17.2656094,20.8773463 17.2613931,20.8942716 17.2613931,20.9133126 C17.2613931,20.9270644 17.2645553,20.9397584 17.2656094,20.9535102 C17.2666635,20.9937077 17.2708797,21.0328475 17.2772041,21.0719872 C17.2814204,21.1047799 17.2866907,21.1375727 17.2951233,21.1703654 C17.3035558,21.2052739 17.3151505,21.2380666 17.3267453,21.2719172 C17.33834,21.3047099 17.3499347,21.3385605 17.3646917,21.3702954 C17.3794486,21.4020304 17.3963136,21.4316496 17.4142328,21.4623267 C17.4321519,21.491946 17.449017,21.5215652 17.4700983,21.5501267 C17.4901256,21.5786881 17.513315,21.6051339 17.5375586,21.6326375 C17.560748,21.6580254 17.5839375,21.6844712 17.6092351,21.7088013 C17.6345327,21.7320735 17.6608843,21.7521723 17.6882901,21.7733289 C17.718858,21.797659 17.7494259,21.8198735 17.782102,21.8399723 C17.7947508,21.8473771 17.8042374,21.8568976 17.8168862,21.8643024 C17.829535,21.8717072 17.8432378,21.8738228 17.8569407,21.8801698 C17.9128062,21.9087313 17.971834,21.9330614 18.0340239,21.9521023 C18.0561593,21.9584493 18.0772406,21.9669119 18.1004301,21.9722011 C18.1794851,21.9912421 18.2606482,22.0028782 18.3460276,22.0028782 C18.3470816,22.0028782 18.3470816,22.003936 18.3481357,22.003936 L18.3491898,22.003936 L18.3502438,22.003936 L18.8319522,22.0028782 C18.8340604,22.0028782 18.8361685,22.003936 18.8382766,22.003936 L18.8393307,22.003936 L37.6923643,21.9785481 C38.1909377,22.8459692 39.1227325,24.478202 39.9164446,25.8681915 C40.525695,26.9366005 41.0295388,27.8177735 41.4258678,28.5106525 L13.3708337,28.5106525 C13.3581849,28.5106525 13.3465901,28.5148839 13.3349954,28.5159417 C12.9534233,28.5222887 12.5855541,28.7243343 12.3916059,29.0871703 L7.74738883,37.7952324 L0.0874875202,37.7952324 C3.43098648,31.7931012 20.7492992,0.710862218 20.9727613,0.311002221 Z M30.6522541,1.10966439 L31.333181,2.23096491 C32.5295465,4.20487696 34.2192151,6.99120298 34.3984064,7.28104859 C34.455326,7.37307986 34.4816777,7.59628213 34.3615141,7.81102176 L27.702976,19.8078795 L20.207509,19.8174 L30.6522541,1.10966439 Z M43.4212157,13.8290205 L47.150503,20.4563297 L43.3484851,27.4856146 C42.8952365,26.6943573 42.332365,25.7084591 41.8042777,24.7828572 C40.7607519,22.953868 39.9997158,21.6220591 39.5707108,20.8773463 C40.3812879,19.3932099 42.5242051,15.4665424 43.4212157,13.8290205 Z" id="Fill-1"></path>
            <path d="M64.9915034,41.4717475 L64.9915034,47.9719462 L62.2578621,47.9719462 L62.2578621,31.1577791 L64.9915034,31.1577791 L64.9915034,37.0343425 C65.7828207,36.2907773 66.7659724,35.9309877 67.9169793,35.9309877 C70.7225586,35.9309877 72.6409034,37.8738515 72.6409034,41.1359439 L72.6409034,47.9719462 L69.9072621,47.9719462 L69.9072621,41.1359439 C69.9072621,39.4809117 69.0440069,38.401543 67.581269,38.401543 C65.9266966,38.401543 64.9915034,39.5768556 64.9915034,41.4717475 Z M79.057725,48.2357919 C77.9306974,48.2357919 76.9955043,47.9239743 76.2281664,47.276353 C75.4848078,46.6287317 75.1011388,45.7412507 75.1011388,44.6618819 C75.1011388,42.0953828 77.1154009,40.7281823 79.9929181,40.7281823 C80.7602561,40.7281823 81.5515733,40.8720982 82.3668699,41.1359439 L82.3668699,40.3444068 C82.3668699,39.1690941 81.3837181,38.401543 80.0648561,38.401543 C78.8419112,38.401543 77.9067181,38.9772063 77.2832561,40.104547 L75.4368492,38.377557 C76.3240836,36.7704968 78.1704905,35.9309877 80.0888354,35.9309877 C83.1342078,35.9309877 85.1005112,37.46609 85.1005112,40.3683928 L85.1005112,47.9719462 L82.4148285,47.9719462 L82.4148285,47.0604793 C81.527594,47.8520164 80.4005664,48.2357919 79.057725,48.2357919 Z M77.8347802,44.4699942 C77.8347802,45.2615313 78.4582423,45.8371946 79.6092492,45.8371946 C80.7362768,45.8371946 81.6714699,45.501391 82.3668699,44.8297838 L82.3668699,43.4865693 C81.527594,43.1747516 80.7122974,43.0068498 79.9209802,43.0068498 C78.6500768,43.0068498 77.8347802,43.5345412 77.8347802,44.4699942 Z M90.8693562,41.4717475 L90.8693562,47.9719462 L88.1357149,47.9719462 L88.1357149,36.2188194 L90.8213976,36.2188194 L90.8213976,37.1782583 C91.5647562,36.3387493 92.5718873,35.9309877 93.86677,35.9309877 C96.7682666,35.9309877 98.5187562,37.8498656 98.5187562,41.1359439 L98.5187562,47.9719462 L95.7851149,47.9719462 L95.7851149,41.1359439 C95.7851149,39.4809117 94.9218597,38.401543 93.4591218,38.401543 C91.8045493,38.401543 90.8693562,39.5768556 90.8693562,41.4717475 Z M106.685532,35.9309877 C107.980415,35.9309877 109.083463,36.3147633 109.970698,37.0823144 L109.970698,31.1577791 L112.704339,31.1577791 L112.704339,47.9719462 L110.018656,47.9719462 L110.018656,46.9165634 C109.179381,47.8040444 108.052353,48.2357919 106.685532,48.2357919 C105.006981,48.2357919 103.64016,47.6601286 102.561091,46.5088019 C101.482022,45.3334892 100.954477,43.8703448 100.954477,42.0953828 C100.954477,40.3204208 101.482022,38.8572764 102.561091,37.6819638 C103.64016,36.5066511 105.006981,35.9309877 106.685532,35.9309877 Z M106.877367,38.353571 C104.887084,38.353571 103.736077,39.9846172 103.736077,42.0953828 C103.736077,44.2061485 104.887084,45.8371946 106.877367,45.8371946 C108.891629,45.8371946 110.018656,44.2061485 110.018656,42.0953828 C110.018656,39.9846172 108.891629,38.353571 106.877367,38.353571 Z M121.743008,43.5345412 L120.184353,43.1507656 C117.810402,42.5990883 116.611436,41.3758036 116.611436,39.4329398 C116.611436,37.2981882 118.385905,35.9309877 120.903733,35.9309877 C122.606264,35.9309877 124.069002,36.578609 125.339905,37.8978375 L123.589415,39.7687434 C122.870036,38.7853185 121.958822,38.2816131 120.831795,38.2816131 C119.848643,38.2816131 119.225181,38.7853185 119.225181,39.3849679 C119.225181,39.9366452 119.60885,40.2964348 120.376188,40.4883226 L122.222595,40.9200701 C124.620526,41.4717475 125.819491,42.6950321 125.819491,44.589924 C125.819491,46.7246756 124.14094,48.2357919 121.167505,48.2357919 C119.129264,48.2357919 117.498671,47.4682408 116.299705,45.9571245 L118.026215,44.1821625 C118.889471,45.3095032 120.016498,45.8851666 121.383319,45.8851666 C122.654222,45.8851666 123.181767,45.3574752 123.181767,44.6858679 C123.181767,44.1821625 122.822077,43.8223729 121.743008,43.5345412 Z M131.060791,41.4717475 L131.060791,47.9719462 L128.32715,47.9719462 L128.32715,31.1577791 L131.060791,31.1577791 L131.060791,37.0343425 C131.852109,36.2907773 132.83526,35.9309877 133.986267,35.9309877 C136.791847,35.9309877 138.710191,37.8738515 138.710191,41.1359439 L138.710191,47.9719462 L135.97655,47.9719462 L135.97655,41.1359439 C135.97655,39.4809117 135.113295,38.401543 133.650557,38.401543 C131.995985,38.401543 131.060791,39.5768556 131.060791,41.4717475 Z M145.126478,48.2357919 C143.99945,48.2357919 143.064257,47.9239743 142.296919,47.276353 C141.553561,46.6287317 141.169892,45.7412507 141.169892,44.6618819 C141.169892,42.0953828 143.184154,40.7281823 146.061671,40.7281823 C146.829009,40.7281823 147.620326,40.8720982 148.435623,41.1359439 L148.435623,40.3444068 C148.435623,39.1690941 147.452471,38.401543 146.133609,38.401543 C144.910664,38.401543 143.975471,38.9772063 143.352009,40.104547 L141.505602,38.377557 C142.392836,36.7704968 144.239243,35.9309877 146.157588,35.9309877 C149.202961,35.9309877 151.169264,37.46609 151.169264,40.3683928 L151.169264,47.9719462 L148.483581,47.9719462 L148.483581,47.0604793 C147.596347,47.8520164 146.469319,48.2357919 145.126478,48.2357919 Z M143.903533,44.4699942 C143.903533,45.2615313 144.526995,45.8371946 145.678002,45.8371946 C146.80503,45.8371946 147.740223,45.501391 148.435623,44.8297838 L148.435623,43.4865693 C147.596347,43.1747516 146.78105,43.0068498 145.989733,43.0068498 C144.71883,43.0068498 143.903533,43.5345412 143.903533,44.4699942 Z M157.058006,47.9719462 L154.324364,47.9719462 L154.324364,31.1577791 L157.058006,31.1577791 L157.058006,40.7761543 L161.134488,36.2188194 L164.53955,36.2188194 L159.959502,41.3038457 L164.755364,47.9719462 L161.638054,47.9719462 L158.137075,43.1987376 L157.058006,44.4220222 L157.058006,47.9719462 Z M176.686892,41.951467 L176.662913,42.9109059 L168.629844,42.9109059 C168.74974,44.6618819 169.972685,45.7652367 171.723175,45.7652367 C172.994078,45.7652367 174.001209,45.2135593 174.744568,44.1102046 L176.590975,45.8371946 C175.344051,47.4442548 173.713457,48.2357919 171.723175,48.2357919 C169.972685,48.2357919 168.533926,47.6841146 167.454857,46.5567738 C166.375788,45.4294331 165.824264,43.9662887 165.824264,42.1673407 C165.824264,40.4163647 166.32783,38.9292344 167.310982,37.7299357 C168.318113,36.5306371 169.660954,35.9309877 171.315526,35.9309877 C175.128237,35.9309877 176.686892,38.9772063 176.686892,41.951467 Z M171.339506,38.4255289 C169.900747,38.4255289 169.037492,39.4569258 168.77372,40.7281823 L173.785395,40.7281823 C173.761416,39.5048977 172.994078,38.4255289 171.339506,38.4255289 Z" id="hand:shake"></path>
        </g>
    </g>
</svg>
